# xmcd
#
# Track frame offsets:
#	150
#	17178
#	32718
#	43413
#
# Disc length: 825 seconds
#
# Revision: 1
# Processed by: cddbd v1.5.2PL0 Copyright (c) Steve Scherf et al.
# Submitted via: audiograbber 1.83.01
#
DISCID=30033704
DTITLE=The Silver Brazilians - Iraqdonalds E.P.
DYEAR=2008
DGENRE=Blues
TTITLE0=Iraqdonalds
TTITLE1=I'm Gonna Kill Yer (If You Leave Me)
TTITLE2=You're Dirty I Love You
TTITLE3=Peggy Sue Got Loaded
EXTD=
EXTT0=
EXTT1=
EXTT2=
EXTT3=
PLAYORDER=
